<?xml version="1.0" encoding="utf-8"?><!DOCTYPE svg PUBLIC "-//W3C//DTD SVG 1.1//EN" "http://www.w3.org/Graphics/SVG/1.1/DTD/svg11.dtd"><svg version="1.1" xmlns="http://www.w3.org/2000/svg" xmlns:xlink="http://www.w3.org/1999/xlink" x="0px" y="0px" viewBox="4.085 -0.177 93.73 125" enable-background="new 4.085 -0.177 93.73 100" xml:space="preserve"><g><g><path d="M74.584,90.419H27.312c-12.806,0-23.227-8.801-23.227-19.616V31.979c0-10.815,10.42-19.617,23.227-19.617h47.272
			c12.808,0,23.231,8.8,23.231,19.617v38.823C97.815,81.618,87.392,90.419,74.584,90.419z M27.312,18.319
			c-9.525,0-17.269,6.129-17.269,13.66v38.823c0,7.53,7.745,13.659,17.269,13.659h47.272c9.524,0,17.272-6.128,17.272-13.659V31.979
			c0-7.53-7.748-13.66-17.272-13.66H27.312z"/></g><g><path d="M74.461,99.823H27.439c-1.645,0-2.978-1.336-2.978-2.979V86.657h5.958v7.207h41.064v-7.731h5.957v10.711
			C77.439,98.488,76.105,99.823,74.461,99.823z"/></g><g><path d="M69.604,15.145h-5.958V5.781H38.254v9.168h-5.958V2.802c0-1.645,1.335-2.979,2.979-2.979h31.349
			c1.643,0,2.978,1.336,2.978,2.979v12.343H69.604z"/></g><g><path d="M50.957,73.334c-6.568,0-12.749-3.499-16.13-9.129c-0.447-0.743-0.205-1.705,0.535-2.152
			c0.744-0.435,1.705-0.208,2.153,0.535c2.82,4.697,7.972,7.611,13.442,7.611c5.549,0,10.58-2.846,13.446-7.62
			c0.451-0.743,1.413-0.97,2.153-0.535c0.74,0.448,0.979,1.411,0.536,2.153C63.648,69.918,57.617,73.334,50.957,73.334z"/></g><g><path d="M65.057,39.402c-2.603,0-4.703,2.103-4.703,4.702c0,2.6,2.101,4.703,4.703,4.703c2.597,0,4.702-2.103,4.702-4.703
			C69.759,41.505,67.653,39.402,65.057,39.402z"/></g><g><path d="M36.844,39.402c-2.603,0-4.703,2.103-4.703,4.702c0,2.6,2.101,4.703,4.703,4.703c2.596,0,4.703-2.103,4.703-4.703
			C41.546,41.505,39.439,39.402,36.844,39.402z"/></g><g><path d="M13.334,35.714h-0.003c-0.866,0-1.565-0.702-1.565-1.564c0-4.881,2.949-14.106,14.106-14.106
			c0.867,0,1.568,0.7,1.568,1.566c0,0.868-0.701,1.568-1.568,1.568c-10.788,0-10.968,10.527-10.971,10.976
			C14.895,35.016,14.197,35.714,13.334,35.714z"/></g></g><text x="4.085" y="114.823" fill="#000000" font-size="5px" font-weight="bold" font-family="'Helvetica Neue', Helvetica, Arial-Unicode, Arial, Sans-serif">Created by Timur Zima</text><text x="4.085" y="119.823" fill="#000000" font-size="5px" font-weight="bold" font-family="'Helvetica Neue', Helvetica, Arial-Unicode, Arial, Sans-serif">from the Noun Project</text></svg>